<?xml version="1.0" encoding="UTF-8" standalone="no"?>
<svg
   fill="none"
   stroke-linecap="round"
   stroke-linejoin="round"
   stroke-width="8"
   aria-labelledby="title"
   viewBox="0 0 120 120"
   version="1.1"
   id="svg6"
   sodipodi:docname="ucode-logo.svg"
   inkscape:export-filename="ucode-logo.png"
   inkscape:export-xdpi="204.8"
   inkscape:export-ydpi="204.8"
   inkscape:version="1.2.2 (b0a8486541, 2022-12-01)"
   xmlns:inkscape="http://www.inkscape.org/namespaces/inkscape"
   xmlns:sodipodi="http://sodipodi.sourceforge.net/DTD/sodipodi-0.dtd"
   xmlns="http://www.w3.org/2000/svg"
   xmlns:svg="http://www.w3.org/2000/svg">
  <defs
     id="defs10" />
  <sodipodi:namedview
     id="namedview8"
     pagecolor="#ffffff"
     bordercolor="#666666"
     borderopacity="1.0"
     inkscape:showpageshadow="2"
     inkscape:pageopacity="0"
     inkscape:pagecheckerboard="0"
     inkscape:deskcolor="#ffffff"
     showgrid="false"
     inkscape:zoom="8.775"
     inkscape:cx="60"
     inkscape:cy="60"
     inkscape:window-width="3840"
     inkscape:window-height="2459"
     inkscape:window-x="0"
     inkscape:window-y="38"
     inkscape:window-maximized="1"
     inkscape:current-layer="svg6" />
  <path
     stroke="#16181d"
     d="M34 20c-12 0-12 4-12 14v16q0 10-10 10 10 1 10 10v16c0 10 0 14 12 14m52-80c12 0 12 4 12 14v16q1 10 10 10-9 1-10 10v16c0 10 0 14-12 14"
     id="path2"
     style="stroke:#808a94;stroke-opacity:1" />
  <path
     stroke="#58b6d0"
     d="M47 31v58m0-34q1 16 14 16t14-16V31m0 24v10q0 6 6 6"
     id="path4" />
</svg>
